<svg width="719" height="719" viewBox="0 0 719 719" fill="none" xmlns="http://www.w3.org/2000/svg">
<rect width="719" height="719" fill="#141414"/>
<path d="M180.832 256.611C182.605 251.122 184.614 245.721 186.853 240.422L290.752 136.523C296.051 134.284 301.453 132.275 306.942 130.502L180.832 256.611Z" fill="url(#paint0_linear_403_158)"/>
<path d="M174.145 283.634C174.9 279.312 175.795 275.027 176.826 270.784L321.115 126.496C325.357 125.464 329.643 124.57 333.964 123.815L174.145 283.634Z" fill="url(#paint1_linear_403_158)"/>
<path d="M171.474 306.642C171.692 302.914 172.012 299.204 172.432 295.516L345.846 122.101C349.535 121.681 353.245 121.361 356.972 121.144L171.474 306.642Z" fill="url(#paint2_linear_403_158)"/>
<path d="M171.307 327.144C171.237 325.481 171.188 323.815 171.158 322.148C171.129 320.48 171.12 318.814 171.132 317.151L367.482 120.801C369.145 120.79 370.81 120.799 372.478 120.828C374.146 120.857 375.811 120.907 377.475 120.976L171.307 327.144Z" fill="url(#paint3_linear_403_158)"/>
<path d="M172.945 345.844C172.539 342.804 172.2 339.752 171.929 336.692L387.022 121.599C390.083 121.87 393.134 122.208 396.174 122.614L172.945 345.844Z" fill="url(#paint4_linear_403_158)"/>
<path d="M176 363.126C175.379 360.312 174.817 357.484 174.313 354.644L404.975 123.982C407.814 124.486 410.642 125.049 413.456 125.669L176 363.126Z" fill="url(#paint5_linear_403_158)"/>
<path d="M180.228 379.233C179.426 376.608 178.676 373.968 177.978 371.314L421.644 127.648C424.298 128.346 426.939 129.096 429.563 129.897L180.228 379.233Z" fill="url(#paint6_linear_403_158)"/>
<path d="M185.469 394.329C184.509 391.87 183.596 389.393 182.73 386.9L437.231 132.399C439.723 133.266 442.2 134.179 444.66 135.138L185.469 394.329Z" fill="url(#paint7_linear_403_158)"/>
<path d="M191.609 408.526C190.507 406.213 189.448 403.882 188.432 401.534L451.865 138.101C454.213 139.118 456.544 140.177 458.856 141.278L191.609 408.526Z" fill="url(#paint8_linear_403_158)"/>
<path d="M198.569 421.901C197.337 419.724 196.144 417.527 194.99 415.312L465.642 144.66C467.858 145.813 470.054 147.006 472.232 148.239L198.569 421.901Z" fill="url(#paint9_linear_403_158)"/>
<path d="M206.294 434.514C204.939 432.463 203.62 430.392 202.339 428.3L478.631 152.008C480.722 153.29 482.794 154.608 484.844 155.963L206.294 434.514Z" fill="url(#paint10_linear_403_158)"/>
<path d="M214.742 446.401C213.27 444.471 211.832 442.519 210.429 440.545L490.876 160.099C492.849 161.501 494.801 162.939 496.731 164.411L214.742 446.401Z" fill="url(#paint11_linear_403_158)"/>
<path d="M223.889 457.591C222.303 455.778 220.75 453.942 219.23 452.082L502.413 168.899C504.272 170.419 506.109 171.973 507.921 173.559L223.889 457.591Z" fill="url(#paint12_linear_403_158)"/>
<path d="M233.719 468.098C232.021 466.4 230.354 464.677 228.719 462.929L513.259 178.389C515.007 180.024 516.73 181.69 518.428 183.388L233.719 468.098Z" fill="url(#paint13_linear_403_158)"/>
<path d="M270.781 146.326L196.657 220.45C205.292 205.121 216.008 190.93 228.635 178.304C241.261 165.678 255.451 154.962 270.781 146.326Z" fill="url(#paint14_linear_403_158)"/>
<path d="M534.305 461.992C532.532 467.481 530.523 472.882 528.285 478.181L424.385 582.081C419.086 584.319 413.685 586.328 408.196 588.102L534.305 461.992Z" fill="url(#paint15_linear_403_158)"/>
<path d="M540.993 434.969C540.237 439.291 539.343 443.576 538.311 447.819L394.023 592.107C389.78 593.139 385.495 594.034 381.173 594.789L540.993 434.969Z" fill="url(#paint16_linear_403_158)"/>
<path d="M543.664 411.961C543.446 415.689 543.126 419.399 542.706 423.087L369.291 596.502C365.603 596.922 361.893 597.242 358.165 597.46L543.664 411.961Z" fill="url(#paint17_linear_403_158)"/>
<path d="M543.831 391.459C543.9 393.122 543.95 394.788 543.979 396.455C544.008 398.123 544.017 399.789 544.006 401.452L347.656 597.802C345.993 597.814 344.327 597.805 342.659 597.775C340.992 597.746 339.326 597.697 337.663 597.627L543.831 391.459Z" fill="url(#paint18_linear_403_158)"/>
<path d="M542.193 372.759C542.599 375.799 542.938 378.851 543.209 381.912L328.116 597.005C325.055 596.734 322.003 596.395 318.963 595.989L542.193 372.759Z" fill="url(#paint19_linear_403_158)"/>
<path d="M539.138 355.478C539.759 358.292 540.321 361.119 540.825 363.959L310.163 594.621C307.323 594.117 304.495 593.555 301.681 592.934L539.138 355.478Z" fill="url(#paint20_linear_403_158)"/>
<path d="M534.91 339.371C535.711 341.995 536.461 344.635 537.159 347.289L293.493 590.955C290.839 590.257 288.199 589.507 285.575 588.706L534.91 339.371Z" fill="url(#paint21_linear_403_158)"/>
<path d="M529.669 324.274C530.628 326.734 531.542 329.211 532.408 331.703L277.907 586.204C275.414 585.338 272.938 584.424 270.478 583.465L529.669 324.274Z" fill="url(#paint22_linear_403_158)"/>
<path d="M523.529 310.078C524.63 312.39 525.689 314.721 526.706 317.069L263.273 580.502C260.925 579.486 258.594 578.426 256.282 577.325L523.529 310.078Z" fill="url(#paint23_linear_403_158)"/>
<path d="M516.569 296.702C517.801 298.879 518.994 301.076 520.147 303.292L249.496 573.943C247.28 572.79 245.083 571.597 242.906 570.365L516.569 296.702Z" fill="url(#paint24_linear_403_158)"/>
<path d="M508.844 284.09C510.199 286.14 511.517 288.212 512.799 290.303L236.507 566.595C234.415 565.314 232.344 563.995 230.294 562.64L508.844 284.09Z" fill="url(#paint25_linear_403_158)"/>
<path d="M500.396 272.203C501.868 274.132 503.306 276.084 504.709 278.058L224.262 558.505C222.288 557.102 220.336 555.664 218.407 554.192L500.396 272.203Z" fill="url(#paint26_linear_403_158)"/>
<path d="M491.248 261.012C492.835 262.825 494.388 264.662 495.908 266.521L212.725 549.704C210.866 548.184 209.029 546.631 207.216 545.045L491.248 261.012Z" fill="url(#paint27_linear_403_158)"/>
<path d="M201.878 540.215C200.131 538.58 198.407 536.913 196.709 535.215L481.419 250.506C483.117 252.204 484.784 253.927 486.418 255.674L201.878 540.215Z" fill="url(#paint28_linear_403_158)"/>
<path d="M444.357 572.277L518.481 498.153C509.845 513.482 499.129 527.673 486.503 540.299C473.877 552.925 459.686 563.641 444.357 572.277Z" fill="url(#paint29_linear_403_158)"/>
<defs>
<linearGradient id="paint0_linear_403_158" x1="228.635" y1="178.305" x2="389.27" y2="335.821" gradientUnits="userSpaceOnUse">
<stop stop-color="white" stop-opacity="0.9"/>
<stop offset="1" stop-color="white" stop-opacity="0"/>
</linearGradient>
<linearGradient id="paint1_linear_403_158" x1="228.635" y1="178.305" x2="389.27" y2="335.821" gradientUnits="userSpaceOnUse">
<stop stop-color="white" stop-opacity="0.9"/>
<stop offset="1" stop-color="white" stop-opacity="0"/>
</linearGradient>
<linearGradient id="paint2_linear_403_158" x1="228.635" y1="178.305" x2="389.27" y2="335.821" gradientUnits="userSpaceOnUse">
<stop stop-color="white" stop-opacity="0.9"/>
<stop offset="1" stop-color="white" stop-opacity="0"/>
</linearGradient>
<linearGradient id="paint3_linear_403_158" x1="228.635" y1="178.305" x2="389.27" y2="335.821" gradientUnits="userSpaceOnUse">
<stop stop-color="white" stop-opacity="0.9"/>
<stop offset="1" stop-color="white" stop-opacity="0"/>
</linearGradient>
<linearGradient id="paint4_linear_403_158" x1="228.635" y1="178.305" x2="389.27" y2="335.821" gradientUnits="userSpaceOnUse">
<stop stop-color="white" stop-opacity="0.9"/>
<stop offset="1" stop-color="white" stop-opacity="0"/>
</linearGradient>
<linearGradient id="paint5_linear_403_158" x1="228.635" y1="178.305" x2="389.27" y2="335.821" gradientUnits="userSpaceOnUse">
<stop stop-color="white" stop-opacity="0.9"/>
<stop offset="1" stop-color="white" stop-opacity="0"/>
</linearGradient>
<linearGradient id="paint6_linear_403_158" x1="228.635" y1="178.305" x2="389.27" y2="335.821" gradientUnits="userSpaceOnUse">
<stop stop-color="white" stop-opacity="0.9"/>
<stop offset="1" stop-color="white" stop-opacity="0"/>
</linearGradient>
<linearGradient id="paint7_linear_403_158" x1="228.635" y1="178.305" x2="389.27" y2="335.821" gradientUnits="userSpaceOnUse">
<stop stop-color="white" stop-opacity="0.9"/>
<stop offset="1" stop-color="white" stop-opacity="0"/>
</linearGradient>
<linearGradient id="paint8_linear_403_158" x1="228.635" y1="178.305" x2="389.27" y2="335.821" gradientUnits="userSpaceOnUse">
<stop stop-color="white" stop-opacity="0.9"/>
<stop offset="1" stop-color="white" stop-opacity="0"/>
</linearGradient>
<linearGradient id="paint9_linear_403_158" x1="228.635" y1="178.305" x2="389.27" y2="335.821" gradientUnits="userSpaceOnUse">
<stop stop-color="white" stop-opacity="0.9"/>
<stop offset="1" stop-color="white" stop-opacity="0"/>
</linearGradient>
<linearGradient id="paint10_linear_403_158" x1="228.635" y1="178.305" x2="389.27" y2="335.821" gradientUnits="userSpaceOnUse">
<stop stop-color="white" stop-opacity="0.9"/>
<stop offset="1" stop-color="white" stop-opacity="0"/>
</linearGradient>
<linearGradient id="paint11_linear_403_158" x1="228.635" y1="178.305" x2="389.27" y2="335.821" gradientUnits="userSpaceOnUse">
<stop stop-color="white" stop-opacity="0.9"/>
<stop offset="1" stop-color="white" stop-opacity="0"/>
</linearGradient>
<linearGradient id="paint12_linear_403_158" x1="228.635" y1="178.305" x2="389.27" y2="335.821" gradientUnits="userSpaceOnUse">
<stop stop-color="white" stop-opacity="0.9"/>
<stop offset="1" stop-color="white" stop-opacity="0"/>
</linearGradient>
<linearGradient id="paint13_linear_403_158" x1="228.635" y1="178.305" x2="389.27" y2="335.821" gradientUnits="userSpaceOnUse">
<stop stop-color="white" stop-opacity="0.9"/>
<stop offset="1" stop-color="white" stop-opacity="0"/>
</linearGradient>
<linearGradient id="paint14_linear_403_158" x1="228.635" y1="178.305" x2="389.27" y2="335.821" gradientUnits="userSpaceOnUse">
<stop stop-color="white" stop-opacity="0.9"/>
<stop offset="1" stop-color="white" stop-opacity="0"/>
</linearGradient>
<linearGradient id="paint15_linear_403_158" x1="486.503" y1="540.299" x2="325.868" y2="382.783" gradientUnits="userSpaceOnUse">
<stop stop-color="white" stop-opacity="0.9"/>
<stop offset="1" stop-color="white" stop-opacity="0"/>
</linearGradient>
<linearGradient id="paint16_linear_403_158" x1="486.503" y1="540.299" x2="325.868" y2="382.783" gradientUnits="userSpaceOnUse">
<stop stop-color="white" stop-opacity="0.9"/>
<stop offset="1" stop-color="white" stop-opacity="0"/>
</linearGradient>
<linearGradient id="paint17_linear_403_158" x1="486.503" y1="540.299" x2="325.868" y2="382.783" gradientUnits="userSpaceOnUse">
<stop stop-color="white" stop-opacity="0.9"/>
<stop offset="1" stop-color="white" stop-opacity="0"/>
</linearGradient>
<linearGradient id="paint18_linear_403_158" x1="486.503" y1="540.299" x2="325.868" y2="382.783" gradientUnits="userSpaceOnUse">
<stop stop-color="white" stop-opacity="0.9"/>
<stop offset="1" stop-color="white" stop-opacity="0"/>
</linearGradient>
<linearGradient id="paint19_linear_403_158" x1="486.503" y1="540.299" x2="325.868" y2="382.783" gradientUnits="userSpaceOnUse">
<stop stop-color="white" stop-opacity="0.9"/>
<stop offset="1" stop-color="white" stop-opacity="0"/>
</linearGradient>
<linearGradient id="paint20_linear_403_158" x1="486.503" y1="540.299" x2="325.868" y2="382.783" gradientUnits="userSpaceOnUse">
<stop stop-color="white" stop-opacity="0.9"/>
<stop offset="1" stop-color="white" stop-opacity="0"/>
</linearGradient>
<linearGradient id="paint21_linear_403_158" x1="486.503" y1="540.299" x2="325.868" y2="382.783" gradientUnits="userSpaceOnUse">
<stop stop-color="white" stop-opacity="0.9"/>
<stop offset="1" stop-color="white" stop-opacity="0"/>
</linearGradient>
<linearGradient id="paint22_linear_403_158" x1="486.503" y1="540.299" x2="325.868" y2="382.783" gradientUnits="userSpaceOnUse">
<stop stop-color="white" stop-opacity="0.9"/>
<stop offset="1" stop-color="white" stop-opacity="0"/>
</linearGradient>
<linearGradient id="paint23_linear_403_158" x1="486.503" y1="540.299" x2="325.868" y2="382.783" gradientUnits="userSpaceOnUse">
<stop stop-color="white" stop-opacity="0.9"/>
<stop offset="1" stop-color="white" stop-opacity="0"/>
</linearGradient>
<linearGradient id="paint24_linear_403_158" x1="486.503" y1="540.299" x2="325.868" y2="382.783" gradientUnits="userSpaceOnUse">
<stop stop-color="white" stop-opacity="0.9"/>
<stop offset="1" stop-color="white" stop-opacity="0"/>
</linearGradient>
<linearGradient id="paint25_linear_403_158" x1="486.503" y1="540.299" x2="325.868" y2="382.783" gradientUnits="userSpaceOnUse">
<stop stop-color="white" stop-opacity="0.9"/>
<stop offset="1" stop-color="white" stop-opacity="0"/>
</linearGradient>
<linearGradient id="paint26_linear_403_158" x1="486.503" y1="540.299" x2="325.868" y2="382.783" gradientUnits="userSpaceOnUse">
<stop stop-color="white" stop-opacity="0.9"/>
<stop offset="1" stop-color="white" stop-opacity="0"/>
</linearGradient>
<linearGradient id="paint27_linear_403_158" x1="486.503" y1="540.299" x2="325.868" y2="382.783" gradientUnits="userSpaceOnUse">
<stop stop-color="white" stop-opacity="0.9"/>
<stop offset="1" stop-color="white" stop-opacity="0"/>
</linearGradient>
<linearGradient id="paint28_linear_403_158" x1="486.503" y1="540.299" x2="325.868" y2="382.783" gradientUnits="userSpaceOnUse">
<stop stop-color="white" stop-opacity="0.9"/>
<stop offset="1" stop-color="white" stop-opacity="0"/>
</linearGradient>
<linearGradient id="paint29_linear_403_158" x1="486.503" y1="540.299" x2="325.868" y2="382.783" gradientUnits="userSpaceOnUse">
<stop stop-color="white" stop-opacity="0.9"/>
<stop offset="1" stop-color="white" stop-opacity="0"/>
</linearGradient>
</defs>
</svg>
