<svg width="56" height="56" viewBox="0 0 56 56" fill="none" xmlns="http://www.w3.org/2000/svg">
<path d="M0 12C0 5.37258 5.37258 0 12 0H44C50.6274 0 56 5.37258 56 12V44C56 50.6274 50.6274 56 44 56H12C5.37258 56 0 50.6274 0 44V12Z" fill="white"/>
<path d="M35.5192 19.5664C35.2253 19.5664 34.9967 19.3378 34.9477 19.0602C34.5722 16.4803 34.5885 16.4966 31.8126 15.9415C31.5188 15.8762 31.3065 15.6802 31.3065 15.37C31.3065 15.0597 31.5351 14.8475 31.829 14.7985C34.5885 14.4066 34.5885 14.3903 34.9477 11.6961C34.9967 11.4022 35.2253 11.1736 35.5192 11.1736C35.8295 11.1736 36.0417 11.4022 36.0907 11.7287C36.4173 14.2597 36.4336 14.2433 39.2258 14.7985C39.536 14.8638 39.732 15.0597 39.732 15.37C39.732 15.6802 39.536 15.8762 39.1768 15.9415C36.4826 16.3987 36.4663 16.415 36.0907 19.0439C36.0417 19.3378 35.8295 19.5664 35.5192 19.5664ZM38.2788 44.8264C37.8215 44.8264 37.4296 44.4834 37.3644 44.0099C36.8255 39.8463 36.7929 39.7646 32.3025 38.9971C31.8453 38.9155 31.5188 38.54 31.5188 38.0827C31.5188 37.6092 31.8616 37.2173 32.3351 37.1683C36.7439 36.5806 36.8255 36.4826 37.3644 32.1556C37.4296 31.6657 37.8052 31.3228 38.2788 31.3228C38.7686 31.3228 39.1441 31.6657 39.1932 32.1882C39.6993 36.3194 39.7809 36.3846 44.2549 37.1683C44.7284 37.25 45.055 37.6092 45.055 38.0827C45.055 38.5726 44.7284 38.9155 44.1569 38.9971C39.8136 39.6176 39.6993 39.7809 39.1932 43.9773C39.1441 44.4834 38.7686 44.8264 38.2788 44.8264ZM24.6771 39.6013C23.8118 39.6013 23.126 38.9808 22.9954 38.0991C21.7707 29.7063 20.5951 28.498 12.5125 27.5673C11.6144 27.4693 10.945 26.7509 10.945 25.8692C10.945 25.02 11.5818 24.318 12.4962 24.171C20.5624 23.0443 21.5421 22.0483 22.9954 13.6554C23.1586 12.7738 23.8281 12.1533 24.6771 12.1533C25.5262 12.1533 26.2121 12.7738 26.3427 13.6554C27.5836 22.0483 28.743 23.2566 36.8419 24.171C37.7399 24.269 38.393 24.9874 38.393 25.8692C38.393 26.7346 37.7563 27.4367 36.8582 27.5673C28.7756 28.7266 27.8122 29.7063 26.3427 38.0991C26.1957 38.9808 25.5099 39.6013 24.6771 39.6013Z" fill="black"/>
</svg>
