<svg width="44" height="44" viewBox="0 0 44 44" fill="none" xmlns="http://www.w3.org/2000/svg">
<path d="M20.7439 13.5437C20.9688 13.5437 21.1439 13.3688 21.1814 13.1562C21.4688 11.1812 21.4563 11.1937 23.5814 10.7687C23.8063 10.7187 23.9688 10.5687 23.9688 10.3312C23.9688 10.0937 23.7939 9.93124 23.5688 9.89374C21.4563 9.59374 21.4563 9.58124 21.1814 7.51874C21.1439 7.29374 20.9688 7.11874 20.7439 7.11874C20.5063 7.11874 20.3439 7.29374 20.3063 7.54374C20.0563 9.48124 20.0439 9.46874 17.9063 9.89374C17.6688 9.94374 17.5188 10.0937 17.5188 10.3312C17.5188 10.5687 17.6688 10.7187 17.9439 10.7687C20.0063 11.1187 20.0188 11.1312 20.3063 13.1437C20.3439 13.3688 20.5063 13.5437 20.7439 13.5437ZM14.6313 22.8813C14.9814 22.8813 15.2814 22.6187 15.3313 22.2562C15.7439 19.0688 15.7688 19.0062 19.2063 18.4187C19.5563 18.3562 19.8063 18.0688 19.8063 17.7187C19.8063 17.3562 19.5439 17.0562 19.1814 17.0187C15.8063 16.5688 15.7439 16.4937 15.3313 13.1812C15.2814 12.8062 14.9939 12.5437 14.6313 12.5437C14.2563 12.5437 13.9688 12.8062 13.9313 13.2062C13.5439 16.3688 13.4814 16.4187 10.0563 17.0187C9.69385 17.0813 9.44385 17.3562 9.44385 17.7187C9.44385 18.0937 9.69385 18.3562 10.1313 18.4187C13.4563 18.8937 13.5439 19.0187 13.9313 22.2313C13.9688 22.6187 14.2563 22.8813 14.6313 22.8813ZM24.0439 36.8813C24.7063 36.8813 25.2313 36.4062 25.3313 35.7313C26.2688 29.3062 27.1688 28.3813 33.3563 27.6688C34.0439 27.5937 34.5563 27.0437 34.5563 26.3688C34.5563 25.7187 34.0688 25.1813 33.3688 25.0688C27.1939 24.2062 26.4439 23.4437 25.3313 17.0187C25.2063 16.3437 24.6939 15.8688 24.0439 15.8688C23.3939 15.8688 22.8688 16.3437 22.7688 17.0187C21.8188 23.4437 20.9313 24.3688 14.7313 25.0688C14.0439 25.1437 13.5439 25.6937 13.5439 26.3688C13.5439 27.0313 14.0313 27.5688 14.7188 27.6688C20.9063 28.5562 21.6439 29.3062 22.7688 35.7313C22.8814 36.4062 23.4063 36.8813 24.0439 36.8813Z" fill="#212529"/>
</svg>
