<svg xmlns="http://www.w3.org/2000/svg" fill="none" viewBox="0 0 105.12 28.11834319526627" style="max-height: 500px" width="105.12" height="28.11834319526627">
<path fill="white" d="M4.80565 21.5929C4.77733 21.5929 4.75492 21.5701 4.75492 21.5416C4.75492 21.5416 4.75492 21.5393 4.75492 21.5381C4.7974 20.8234 5.13488 20.2739 5.765 19.8897C6.51076 19.436 7.28956 19.4918 8.06128 19.4941C8.0837 19.4941 8.1014 19.477 8.1014 19.4542V4.1805C8.1014 4.16226 8.08606 4.14744 8.06836 4.1463C8.0424 4.1463 7.66716 4.1463 6.94146 4.14516C6.45176 4.14516 6.08006 4.18392 5.824 4.2603C5.31778 4.41306 4.90242 4.66272 4.57556 5.00928C3.60442 6.04326 3.52653 7.70994 4.45165 8.81574C4.98147 9.45072 5.69656 9.78588 6.5969 9.82122C6.61814 9.82122 6.63584 9.83946 6.63584 9.86112V13.3792C6.63584 13.3974 6.62049 13.4122 6.60161 13.4122C5.32485 13.3963 4.05636 13.0109 3.00498 12.2802C-0.699045 9.70608 -0.726184 4.29108 2.98138 1.7067C4.0953 0.930361 5.34964 0.54276 6.74676 0.54276C10.4756 0.54504 14.2905 0.543902 18.1928 0.540482C19.1025 0.540482 19.7586 0.5781 20.1598 0.65334C24.4586 1.4673 26.7076 6.20628 24.6226 10.072C24.6108 10.0925 24.619 10.1188 24.6403 10.1302C24.6438 10.1313 24.6462 10.1336 24.6497 10.1336C27.3968 10.8609 29.5927 13.0098 30.4305 15.7139C31.4748 19.086 30.2571 22.6736 27.4475 24.8042C25.9949 25.9055 24.2497 26.4561 22.2107 26.455C7.58573 26.4515 0.262655 26.4504 0.240235 26.4515C0.224895 26.4515 0.211916 26.4401 0.211916 26.4253C0.184776 25.8964 0.209556 25.4529 0.283896 25.0949C0.370036 24.6823 0.555295 24.3004 0.838495 23.9481C1.42496 23.2185 2.20021 22.8537 3.16309 22.8514C7.12199 22.8457 11.0632 22.8423 14.9867 22.8423C18.1149 22.8423 20.6023 22.8446 22.4502 22.8491C25.3388 22.8583 27.4711 20.4814 27.1785 17.6382C26.9366 15.2773 24.9848 13.4533 22.5965 13.4464C21.3906 13.443 20.2082 13.443 19.0506 13.4487C19.0199 13.4487 18.994 13.4236 18.994 13.3928V9.852C18.994 9.82806 19.014 9.80754 19.0388 9.80754C19.0388 9.80754 19.04 9.80754 19.0412 9.80754C19.2182 9.81666 19.4046 9.79842 19.6005 9.75396C20.8784 9.46668 21.7481 8.44866 21.8201 7.14564C21.8944 5.79474 21.0743 4.59432 19.7622 4.24434C19.4872 4.17138 19.1214 4.13718 18.6659 4.1406C18.2411 4.14402 17.873 4.14516 17.5603 4.14174C17.5414 4.14174 17.5261 4.15656 17.5261 4.17594V19.4542C17.5261 19.4736 17.5414 19.4896 17.5615 19.4896C17.9603 19.4793 18.3202 19.485 18.6412 19.5067C19.7633 19.5808 20.8478 20.3377 20.8666 21.5484C20.8666 21.5701 20.8501 21.5883 20.8277 21.5883H4.80684L4.80565 21.5929ZM14.0179 4.18734C14.0179 4.16568 14.0002 4.14744 13.9778 4.14744H11.6497C11.6272 4.14744 11.6095 4.16568 11.6095 4.18734V19.4576C11.6095 19.4793 11.6272 19.4975 11.6497 19.4975H13.9778C14.0002 19.4975 14.0179 19.4793 14.0179 19.4576V4.18734Z"/>
<path fill="white" d="M47.5127 26H43.4551C43.25 25.5508 43.084 24.9795 42.957 24.2861C41.5801 25.6729 39.9688 26.3662 38.123 26.3662C37.1074 26.3662 36.2139 26.1709 35.4424 25.7803C34.6709 25.3896 34.0752 24.8428 33.6553 24.1396C33.2354 23.4268 33.0254 22.6162 33.0254 21.708C33.0254 20.3311 33.4746 19.2373 34.373 18.4268C35.2715 17.6162 36.6582 17.0645 38.5332 16.7715C40.4082 16.4785 41.7266 16.1953 42.4883 15.9219V15.6289C42.4883 14.7207 42.2637 14.1006 41.8145 13.7686C41.375 13.4268 40.7207 13.2559 39.8516 13.2559C39.168 13.2559 38.5967 13.4121 38.1377 13.7246C37.6787 14.0371 37.332 14.5303 37.0977 15.2041L33.3477 14.6328C33.7578 13.0703 34.5195 11.9277 35.6328 11.2051C36.7461 10.4727 38.2354 10.1064 40.1006 10.1064C41.6143 10.1064 42.8447 10.3018 43.792 10.6924C44.749 11.0732 45.457 11.6836 45.916 12.5234C46.375 13.3633 46.6045 14.4619 46.6045 15.8193V22.1621C46.6045 22.9043 46.6582 23.5244 46.7656 24.0225C46.873 24.5205 47.1221 25.1797 47.5127 26ZM39.3389 19.335C37.874 19.6279 37.1416 20.3408 37.1416 21.4736C37.1416 22.1084 37.3223 22.5967 37.6836 22.9385C38.0449 23.2803 38.5625 23.4512 39.2363 23.4512C39.9102 23.4512 40.5303 23.2803 41.0967 22.9385C41.4873 22.7041 41.7754 22.46 41.9609 22.2061C42.1562 21.9424 42.293 21.5908 42.3711 21.1514C42.4492 20.7119 42.4883 20.0967 42.4883 19.3057V18.5586C41.7656 18.8223 40.7158 19.0811 39.3389 19.335ZM57.8545 13.8271C56.8096 13.8271 56.0137 14.2471 55.4668 15.0869C54.9199 15.9268 54.6465 17.1182 54.6465 18.6611V26H50.5303V10.458H54.3389V12.6553H54.3975C54.9443 11.7471 55.5254 11.0977 56.1406 10.707C56.7559 10.3066 57.498 10.1064 58.3672 10.1064C58.8945 10.1064 59.373 10.1699 59.8027 10.2969C60.2422 10.4141 60.6719 10.5801 61.0918 10.7949L59.7734 14.457C59.5586 14.3105 59.2559 14.1689 58.8652 14.0322C58.4844 13.8955 58.1475 13.8271 57.8545 13.8271ZM69.5439 23.2168C70.0518 23.2168 70.5449 23.0996 71.0234 22.8652C71.5117 22.6211 71.917 22.1914 72.2393 21.5762C72.5713 20.9609 72.7373 20.1357 72.7373 19.1006V10.458H76.8535V26H73.0156V23.9639C72.4688 24.7354 71.7852 25.3311 70.9648 25.751C70.1543 26.1611 69.2656 26.3662 68.2988 26.3662C66.5703 26.3662 65.252 25.9072 64.3438 24.9893C63.4453 24.0713 62.9961 22.7822 62.9961 21.1221V10.458H67.1123V20.1699C67.1123 21.2051 67.3076 21.9717 67.6982 22.4697C68.0889 22.9678 68.7041 23.2168 69.5439 23.2168ZM98.3428 10.1064C99.9639 10.1064 101.194 10.5703 102.034 11.498C102.884 12.416 103.309 13.876 103.309 15.8779V26H99.1924V15.9512C99.1924 15.0918 99.0215 14.4277 98.6797 13.959C98.3379 13.4902 97.8154 13.2559 97.1123 13.2559C96.5264 13.2559 96.0137 13.4268 95.5742 13.7686C95.1348 14.1006 94.793 14.584 94.5488 15.2188C94.3047 15.8535 94.1826 16.6152 94.1826 17.5039V26H90.0664V16.1709C90.0664 15.2529 89.915 14.54 89.6123 14.0322C89.3096 13.5146 88.7871 13.2559 88.0449 13.2559C86.0527 13.2559 85.0566 14.6719 85.0566 17.5039V26H80.9404V10.458H84.7783V12.4355H84.8076C85.4033 11.6543 86.0771 11.0732 86.8291 10.6924C87.5811 10.3018 88.46 10.1064 89.4658 10.1064C91.4189 10.1064 92.8398 10.9219 93.7285 12.5527C94.3828 11.7227 95.0908 11.1074 95.8525 10.707C96.624 10.3066 97.4541 10.1064 98.3428 10.1064Z"/>
</svg>