<svg width="101" height="40" viewBox="0 0 101 40" fill="none" xmlns="http://www.w3.org/2000/svg">
<g clip-path="url(#clip0_530_2746)">
<path d="M5.5318 4.235C5.7918 3.001 7.0218 2 8.2748 2H15.0868L9.4218 28.823H2.6098C1.3558 28.823 0.549799 27.823 0.810799 26.588L5.5318 4.235ZM28.2388 4.235C28.4998 3.001 29.7288 2 30.9818 2H37.7938L32.1288 28.823H25.3168C24.0628 28.823 23.2568 27.823 23.5178 26.588L28.2388 4.235ZM73.6538 4.235C73.9138 3.001 75.1418 2 76.3968 2H83.2088L77.5438 28.823H70.7308C69.4768 28.823 68.6718 27.823 68.9328 26.588L73.6538 4.235ZM40.0648 2H46.8768C48.1308 2 48.9368 3 48.6758 4.235L43.9548 26.588C43.6948 27.823 42.4658 28.823 41.2118 28.823H34.3998L40.0648 2ZM85.4798 2H92.2918C93.5458 2 94.3518 3 94.0908 4.235L89.3688 26.588C89.1088 27.823 87.8808 28.823 86.6268 28.823H79.8138L85.4798 2ZM50.9468 4.235C51.2068 3.001 52.4348 2 53.6888 2H60.5018L54.8358 28.823H48.0238C46.7698 28.823 45.9638 27.823 46.2258 26.588L50.9458 4.235H50.9468ZM62.7718 2H69.5848C70.8388 2 71.6438 3 71.3828 4.235L64.3018 37.765C64.0398 38.999 62.8118 40 61.5578 40H54.7448L62.7718 2ZM13.5808 19.882H22.6638L21.2478 26.588C20.9868 27.823 19.7578 28.823 18.5048 28.823H11.6918L13.5798 19.883L13.5808 19.882ZM45.2818 31.059H54.3638L52.4758 40H45.6638C44.4088 40 43.6038 39 43.8648 37.765L45.2818 31.059ZM69.9358 33.138L68.7858 38.584C68.7358 38.818 68.6578 38.882 68.4198 38.882H67.8968C67.6588 38.882 67.6068 38.818 67.6568 38.584L68.8068 33.138C68.8568 32.905 68.9348 32.84 69.1728 32.84H69.6958C69.9338 32.84 69.9858 32.905 69.9358 33.138ZM71.4478 36.812H71.3408C71.2268 36.812 71.1868 36.844 71.1638 36.957L70.8198 38.584C70.7698 38.818 70.6908 38.882 70.4538 38.882H69.9298C69.6928 38.882 69.6408 38.818 69.6898 38.584L70.8398 33.138C70.8898 32.905 70.9698 32.84 71.2068 32.84H72.2868C73.5308 32.84 74.0018 33.283 73.7718 34.37L73.5798 35.281C73.3498 36.369 72.6918 36.812 71.4478 36.812ZM71.7638 34.113L71.4638 35.539C71.4388 35.652 71.4648 35.684 71.5798 35.684H71.7518C72.1518 35.684 72.3668 35.523 72.4538 35.112L72.5738 34.54C72.6608 34.13 72.5148 33.968 72.1138 33.968H71.9418C71.8278 33.968 71.7878 34 71.7638 34.113ZM75.5018 34.991L76.3518 35.926C76.7978 36.409 76.8598 36.699 76.7458 37.239L76.7158 37.384C76.5008 38.399 75.9888 38.963 74.8018 38.963C73.6158 38.963 73.3228 38.488 73.5968 37.19L73.6308 37.03C73.6808 36.796 73.7598 36.731 73.9968 36.731H74.5528C74.7908 36.731 74.8428 36.796 74.7928 37.029L74.7178 37.384C74.6498 37.706 74.7538 37.835 75.0398 37.835C75.3268 37.835 75.4828 37.715 75.5448 37.425L75.5768 37.271C75.6248 37.045 75.5988 36.933 75.3528 36.667L74.5528 35.805C74.1048 35.33 74.0478 35.055 74.1618 34.515L74.1988 34.339C74.4138 33.324 74.9258 32.759 76.1118 32.759C77.2988 32.759 77.5918 33.235 77.3178 34.532L77.2838 34.693C77.2338 34.927 77.1548 34.991 76.9178 34.991H76.3608C76.1238 34.991 76.0718 34.927 76.1208 34.693L76.1958 34.339C76.2638 34.016 76.1608 33.888 75.8738 33.888C75.5878 33.888 75.4308 34.008 75.3698 34.298L75.3408 34.435C75.2908 34.669 75.3168 34.782 75.5018 34.991ZM80.2938 33.138C80.3438 32.905 80.4218 32.84 80.6598 32.84H81.1828C81.4208 32.84 81.4728 32.905 81.4228 33.138L80.5668 37.191C80.2928 38.488 79.7998 38.963 78.6128 38.963C77.4268 38.963 77.1338 38.488 77.4078 37.19L78.2638 33.138C78.3138 32.905 78.3928 32.84 78.6298 32.84H79.1538C79.3908 32.84 79.4428 32.905 79.3938 33.138L78.4968 37.384C78.4288 37.706 78.5408 37.835 78.8518 37.835C79.1538 37.835 79.3288 37.706 79.3968 37.384L80.2938 33.138ZM83.6998 36.417C83.7028 36.482 83.7238 36.497 83.7648 36.497C83.8048 36.497 83.8338 36.482 83.8638 36.417L85.2778 33.05C85.3468 32.88 85.4288 32.84 85.6338 32.84H86.4278C86.6648 32.84 86.7168 32.905 86.6678 33.138L85.5178 38.584C85.4678 38.818 85.3878 38.882 85.1508 38.882H84.7748C84.5378 38.882 84.4848 38.818 84.5348 38.584L85.0868 35.974C85.1018 35.902 85.0888 35.885 85.0398 35.885C85.0068 35.885 84.9698 35.902 84.9498 35.958L83.8078 38.617C83.7258 38.81 83.6208 38.882 83.3838 38.882H83.1618C82.9158 38.882 82.8418 38.81 82.8418 38.617L82.8138 35.957C82.8088 35.901 82.7958 35.885 82.7548 35.885C82.7058 35.885 82.6858 35.902 82.6708 35.974L82.1198 38.584C82.0698 38.818 81.9918 38.882 81.7538 38.882H81.3778C81.1398 38.882 81.0878 38.818 81.1378 38.584L82.2878 33.138C82.3378 32.905 82.4168 32.84 82.6538 32.84H83.3338C83.6198 32.84 83.7118 32.905 83.7098 33.187L83.6988 36.417H83.6998ZM100.762 2C100.762 3.105 99.8718 4 98.7748 4C98.513 3.99921 98.2539 3.94685 98.0123 3.8459C97.7708 3.74496 97.5515 3.5974 97.3669 3.41167C97.1824 3.22594 97.0363 3.00567 96.9369 2.76345C96.8375 2.52123 96.7869 2.26181 96.7878 2C96.7878 0.895 97.6778 0 98.7748 0C99.8718 0 100.762 0.895 100.762 2Z" fill="#1D2633"/>
</g>
<defs>
<clipPath id="clip0_530_2746">
<rect width="100" height="40" fill="white" transform="translate(0.761719)"/>
</clipPath>
</defs>
</svg>
