<svg width="73" height="40" viewBox="0 0 73 40" fill="none" xmlns="http://www.w3.org/2000/svg">
<g clip-path="url(#clip0_530_2743)">
<path d="M72.1687 14.2262C72.1762 14.1706 72.1762 14.1144 72.1687 14.0588C72.1758 14.0135 72.1758 13.9673 72.1687 13.9219L71.6353 10.0117C71.5584 9.54389 71.3526 9.10665 71.0411 8.74888L70.9496 8.64237L70.7821 8.475L61.5483 0.5329L61.8073 0.791571C61.5954 0.538393 61.3294 0.335885 61.0288 0.198963C60.7282 0.0620404 60.4006 -0.0058167 60.0703 0.000397418H57.2666C56.8107 -0.00862213 56.3652 0.136114 56.0019 0.411202C55.6204 0.137771 55.1611 -0.00622479 54.6915 0.000397418H51.8878C51.5201 -0.00555964 51.1574 0.0855647 50.8363 0.264571C50.5152 0.443577 50.2472 0.704109 50.0594 1.01978C49.7698 1.47065 49.661 2.01388 49.7546 2.54126L50.1051 5.00604C49.8729 4.87462 49.6101 4.80643 49.3432 4.80827H35.7668C35.2797 4.81132 34.8038 4.95388 34.3954 5.21905C34.0005 5.46587 33.6835 5.81929 33.4812 6.23843L32.4298 5.34077C32.016 4.95846 31.4698 4.75124 30.9061 4.76262H9.6044C9.11557 4.77151 8.6376 4.90787 8.21785 5.1582C7.64359 5.49382 7.22274 6.03953 7.04455 6.67967L0.279196 29.2736C0.152788 29.6459 0.140353 30.0474 0.243484 30.4268C0.346614 30.8061 0.56064 31.1463 0.858219 31.4037C0.935759 31.4693 1.01718 31.5303 1.10202 31.5862C1.10202 31.5862 0.964864 31.4949 0.888677 31.4189L10.1225 39.3762C10.5131 39.7353 11.0238 39.936 11.5547 39.9391H33.0241C33.5144 39.9264 33.9927 39.7847 34.4107 39.5283C34.6471 39.3993 34.8586 39.2293 35.0354 39.0262L35.1116 38.9197L35.2335 38.7676L35.3249 38.6002L36.3306 39.4675C36.7156 39.8123 37.2152 40.002 37.7324 40H59.2474C59.7372 39.9837 60.2146 39.8423 60.634 39.5892C60.8651 39.4523 61.0754 39.2832 61.2588 39.0871L61.3349 38.9806L61.4568 38.8285C61.5216 38.7322 61.5778 38.6304 61.6244 38.5241C61.6742 38.4319 61.715 38.3351 61.7463 38.2351L67.9174 17.6039V17.4213C67.925 17.3505 67.925 17.2791 67.9174 17.2083V17.0714C67.9248 17.026 67.9248 16.9798 67.9174 16.9344C67.9243 16.8382 67.9243 16.7416 67.9174 16.6453H69.8983C70.0706 16.6611 70.244 16.6611 70.4163 16.6453H70.5535C70.665 16.6121 70.7724 16.5661 70.8735 16.5084H71.0259L71.3001 16.2954L71.422 16.2041L71.6353 15.9302V15.839L71.7877 15.5803C71.7792 15.53 71.7792 15.4785 71.7877 15.4282C71.7796 15.4035 71.7796 15.3768 71.7877 15.3521C71.8201 15.2629 71.8456 15.1713 71.8639 15.0782C71.8568 15.0482 71.8568 15.0169 71.8639 14.9869C71.8565 14.9416 71.8565 14.8953 71.8639 14.85C71.8639 14.85 72.1687 14.2566 72.1687 14.2262Z" fill="black"/>
<path d="M31.531 6.49713C31.6119 6.57017 31.6684 6.66621 31.6929 6.77231C31.7175 6.87841 31.7088 6.98946 31.6682 7.0905L24.9181 29.6692C24.8331 29.9157 24.6592 30.1218 24.4305 30.2474C24.2444 30.3717 24.029 30.4451 23.8057 30.4604H2.35167C2.16845 30.4516 1.99487 30.3758 1.86407 30.2474C1.78626 30.1755 1.73165 30.0821 1.70722 29.9792C1.68279 29.8762 1.68967 29.7683 1.72694 29.6692L8.49229 7.0905C8.57024 6.84088 8.73867 6.62928 8.96464 6.49713C9.15381 6.38175 9.36818 6.31388 9.58937 6.29933H31.0434C31.2252 6.30108 31.3995 6.3718 31.531 6.49713ZM20.3316 25.12L24.3695 11.6397H13.0635L9.04081 25.12H20.3316ZM52.0099 6.72534C52.0831 6.81028 52.1746 6.87764 52.2775 6.92242C52.3804 6.9672 52.492 6.98825 52.6042 6.98399H55.3926C55.4988 6.98503 55.6034 6.95903 55.6968 6.90845C55.7901 6.85787 55.8689 6.78437 55.9259 6.69491C55.9754 6.62503 56.0104 6.54592 56.0287 6.46228C56.047 6.37865 56.0483 6.2922 56.0325 6.20805L55.484 2.19135C55.4318 2.00545 55.338 1.83379 55.2098 1.68926C55.1365 1.60432 55.0451 1.53696 54.9422 1.49218C54.8393 1.4474 54.7276 1.42636 54.6155 1.43061H51.8271C51.7209 1.42958 51.6162 1.45558 51.5229 1.50616C51.4296 1.55674 51.3507 1.63023 51.2938 1.7197C51.1871 1.9327 51.1414 2.06963 51.1871 2.19135L51.7509 6.20805C51.7798 6.40363 51.8706 6.58486 52.0099 6.72534ZM60.8628 2.16092C60.8105 1.97501 60.7167 1.80335 60.5885 1.65883C60.5184 1.5742 60.4296 1.50686 60.3292 1.462C60.2288 1.41715 60.1194 1.39599 60.0095 1.40018H57.2058C57.1014 1.39721 56.9981 1.42251 56.9069 1.4734C56.8157 1.52429 56.74 1.59889 56.6878 1.68926C56.5864 1.82424 56.5425 1.99379 56.5659 2.16092L57.1296 6.17761C57.165 6.37113 57.2548 6.55057 57.3887 6.69491C57.4632 6.77819 57.5549 6.84442 57.6575 6.88906C57.7601 6.9337 57.871 6.9557 57.9829 6.95355H60.7866C60.8908 6.95493 60.9934 6.92896 61.0843 6.87822C61.1753 6.82748 61.2513 6.75379 61.3047 6.66449C61.3577 6.59642 61.3947 6.51734 61.4132 6.4331C61.4317 6.34886 61.431 6.26157 61.4113 6.17761L60.8628 2.16092ZM49.5567 8.24682L49.2824 6.2689H35.767C35.5548 6.28058 35.3495 6.34889 35.1727 6.46669C35.0605 6.5278 34.9628 6.6125 34.8865 6.71494C34.8103 6.81739 34.7572 6.93513 34.7309 7.06007L33.6033 10.8333C33.5583 10.9276 33.5429 11.0334 33.5592 11.1366C33.5756 11.2398 33.6228 11.3356 33.6947 11.4115C33.8232 11.5321 33.9909 11.6024 34.1671 11.6093H50.5929L46.555 25.0896H30.1749C29.9637 25.0944 29.758 25.1576 29.5807 25.2721C29.3652 25.4088 29.2078 25.6201 29.1388 25.8655L27.996 29.6388C27.9587 29.7356 27.9489 29.8408 27.9677 29.9428C27.9866 30.0449 28.0332 30.1397 28.1026 30.2169C28.2271 30.3456 28.3961 30.4218 28.575 30.4299H50.09C50.3125 30.4108 50.527 30.3377 50.7147 30.2169C50.9397 30.0907 51.1085 29.8842 51.1871 29.6388L57.3734 9.00756H50.41C50.2995 9.00973 50.1898 8.98925 50.0876 8.94738C49.9854 8.90551 49.8929 8.84312 49.8158 8.76411C49.6898 8.62614 49.6007 8.4587 49.5567 8.27725V8.24682Z" fill="white"/>
</g>
<defs>
<clipPath id="clip0_530_2743">
<rect width="72" height="40" fill="white" transform="translate(0.174316)"/>
</clipPath>
</defs>
</svg>
