<svg width="71" height="44" viewBox="0 0 71 44" fill="none" xmlns="http://www.w3.org/2000/svg">
<g clip-path="url(#clip0_530_2728)">
<path d="M66.114 5.40847C66.114 5.45977 66.114 5.5239 66.1009 5.56238C66.0353 6.06259 66.0353 6.5628 66.0746 7.07584C66.1009 7.2041 66.1271 7.33236 66.2321 7.43497C66.4026 7.62735 66.6649 7.58888 66.7699 7.35801C66.8224 7.24258 66.8224 7.12714 66.7961 7.01171C66.6649 6.52432 66.6387 6.01129 66.6256 5.51107C66.6256 5.48542 66.6256 5.44694 66.6256 5.40847C66.7699 5.39564 66.9011 5.38281 67.0191 5.38281C67.111 5.36999 67.1897 5.35716 67.2553 5.31868C67.452 5.21608 67.452 4.99804 67.2421 4.89543C67.1634 4.85695 67.0585 4.84412 66.9667 4.84412C66.6387 4.85695 66.3108 4.85695 65.9828 4.85695C65.8648 4.85695 65.7467 4.86978 65.6286 4.8826C65.563 4.89543 65.4843 4.89543 65.4319 4.93391C65.34 4.97238 65.2876 5.03651 65.2876 5.12629C65.3007 5.21608 65.34 5.26738 65.4319 5.30586C65.4843 5.34434 65.5499 5.35716 65.6155 5.35716C65.7729 5.36999 65.9435 5.39564 66.114 5.40847ZM69.7214 5.99846C69.7214 6.01129 69.7345 6.02411 69.7345 6.02411C69.787 6.37041 69.8395 6.70389 69.8788 7.03736C69.892 7.15279 69.9051 7.2554 69.9838 7.34518C70.1543 7.56322 70.4167 7.53757 70.5347 7.30671C70.5872 7.19127 70.6003 7.07584 70.5741 6.94758C70.4954 6.5628 70.456 6.17802 70.3773 5.80607C70.3248 5.5752 70.2593 5.35716 70.1937 5.15195C70.1543 5.02369 70.0625 4.9339 69.9051 4.92108C69.7477 4.89543 69.6296 4.97238 69.564 5.08782C69.4853 5.19042 69.4197 5.29303 69.3672 5.40847C69.2754 5.61368 69.1967 5.8189 69.0918 6.01129C69.0786 6.06259 69.0655 6.10107 69.0393 6.13954C69.0262 6.11389 69.0131 6.10107 69.0131 6.10107C68.8425 5.78042 68.6851 5.45977 68.5146 5.15195C68.4883 5.12629 68.4752 5.10064 68.4621 5.07499C68.3834 4.95956 68.2916 4.89543 68.1473 4.89543C68.0161 4.90825 67.9111 4.98521 67.8456 5.10064C67.8193 5.15195 67.8193 5.19042 67.8062 5.24173C67.7537 5.65216 67.6881 6.06259 67.6357 6.47302C67.6094 6.70389 67.5963 6.93475 67.5963 7.16562C67.5832 7.21692 67.5963 7.28105 67.6225 7.33236C67.6488 7.43496 67.7275 7.4991 67.8324 7.51192C67.9636 7.52475 68.0554 7.48627 68.0948 7.38366C68.1341 7.30671 68.1473 7.24258 68.1604 7.17845C68.2129 6.94758 68.2522 6.72954 68.2916 6.5115C68.3178 6.38324 68.3309 6.28063 68.3703 6.13954C68.3965 6.19085 68.4227 6.22933 68.449 6.2678C68.567 6.42172 68.6851 6.57563 68.8294 6.70389C68.9737 6.80649 69.0918 6.79367 69.2098 6.67823C69.2361 6.65258 69.2492 6.63976 69.2754 6.6141C69.3935 6.43454 69.5378 6.25498 69.6558 6.07541C69.6821 6.04976 69.6952 6.02411 69.7214 5.99846Z" fill="black"/>
<path d="M39.496 5.66053C39.4048 5.90428 39.3874 6.07989 39.4295 6.22585C39.476 6.42433 39.5967 6.48931 39.7605 6.43883C41.3013 6.0663 44.68 7.1237 45.9309 7.41841C46.2259 7.48029 46.4659 7.10794 46.2646 6.7741C45.9708 6.4508 42.5936 5.06663 41.305 4.99116C40.7999 4.96325 39.8969 4.83661 39.496 5.66053Z" fill="black"/>
<path d="M52.7009 1.17977C52.8651 1.27244 52.9569 1.36084 53.0022 1.45961C53.0697 1.58917 53.0341 1.67881 52.9207 1.72455C51.9022 2.21057 50.5469 4.30298 49.9998 5.02463C49.8672 5.19064 49.5613 5.09417 49.5151 4.82117C49.5246 4.51249 50.726 2.24176 51.3965 1.62329C51.66 1.38182 52.0953 0.908026 52.7009 1.17977Z" fill="black"/>
<path d="M44.5896 0.149796C44.7869 0.00441888 44.9919 -0.0465256 45.0966 0.0479512C46.6333 1.3329 47.4482 3.36773 47.9528 5.23057C47.9718 5.27397 47.973 5.33625 47.9578 5.40122C47.9515 5.45675 47.91 5.51541 47.8441 5.5608C47.7737 5.61091 47.7131 5.62617 47.6846 5.58299C47.0111 4.68732 43.1644 1.20242 44.5896 0.149796Z" fill="black"/>
<path d="M12.0484 22.4277C12.4167 22.1596 12.8171 21.9364 13.2408 21.7632C13.6841 21.6393 14.1566 21.6598 14.5869 21.8218C15.0171 21.9838 15.3818 22.2783 15.6256 22.6609C15.8437 23.0425 15.929 23.4831 15.8688 23.9163C15.8086 24.3494 15.6061 24.7517 15.2917 25.0626C15.048 25.3146 14.7713 25.5341 14.469 25.7155C13.1216 26.5666 11.7622 27.371 10.4029 28.2221C10.1247 28.4351 9.82965 28.6262 9.52048 28.7934C9.05021 29.0227 8.51277 29.0841 8.00108 28.967C7.4894 28.85 7.03566 28.5617 6.71832 28.1522C6.48109 27.8622 6.28088 27.5451 6.12211 27.2078C4.83431 24.5613 3.49882 21.9264 2.25871 19.2332C1.68635 18.0674 1.22132 16.7266 0.7682 15.4325C0.572162 15.0565 0.53388 14.6206 0.661506 14.2174C0.789132 13.8142 1.0726 13.4756 1.4516 13.2736C1.83061 13.0716 2.27525 13.0222 2.69097 13.1358C3.10669 13.2494 3.46069 13.5171 3.67767 13.8819C4.34462 14.7485 4.93501 15.669 5.44244 16.6334C6.73024 18.9651 7.95843 21.2968 9.19853 23.5586C9.27074 23.6836 9.35036 23.8042 9.43701 23.92C10.3704 23.5363 11.2483 23.0346 12.0484 22.4277Z" fill="black"/>
<path d="M25.3635 21.6142C22.4183 24.9835 17.4817 24.1324 15.0015 19.7954C13.2367 16.7175 12.9267 11.6343 16.7663 8.42819C17.5862 7.75696 18.5666 7.29971 19.6161 7.09909C20.9029 6.91872 22.2151 7.14068 23.3651 7.73326C24.5151 8.32584 25.4441 9.2587 26.0194 10.3985C28.118 14.1293 27.8199 18.886 25.3635 21.6142ZM24.1711 13.7562C23.8582 12.8394 23.2305 12.0567 22.3944 11.541C21.9213 11.2113 21.3464 11.051 20.7666 11.0871C20.1867 11.1232 19.6373 11.3535 19.2107 11.7392C17.5056 13.2199 17.1478 16.7292 18.3879 18.8161C18.546 19.1564 18.7781 19.4588 19.0682 19.7022C19.3583 19.9456 19.6993 20.1241 20.0673 20.2251C20.4353 20.3262 20.8214 20.3474 21.1987 20.2873C21.576 20.2271 21.9352 20.0871 22.2514 19.877C23.1757 19.1763 23.8538 18.2115 24.1914 17.1167C24.5291 16.0218 24.5095 14.8513 24.1354 13.7679L24.1711 13.7562Z" fill="black"/>
<path d="M37.3828 15.2252C37.0813 15.2886 36.7698 15.2924 36.4667 15.2363C36.1637 15.1802 35.8751 15.0655 35.6181 14.8988C35.3932 14.773 35.1996 14.6001 35.0512 14.3924C34.9029 14.1847 34.8035 13.9475 34.7602 13.6977C34.7168 13.448 34.7307 13.192 34.8006 12.9481C34.8706 12.7042 34.9951 12.4785 35.165 12.2872C35.461 11.9028 35.8812 11.6276 36.3574 11.5061C37.6007 11.1533 38.8806 10.9382 40.1731 10.8649C40.4571 10.8326 40.7448 10.8561 41.0193 10.934C41.2939 11.012 41.5497 11.1427 41.7719 11.3187C41.994 11.4946 42.178 11.7122 42.313 11.9586C42.4479 12.205 42.5312 12.4753 42.5579 12.7536C42.9305 14.1206 42.9713 15.5539 42.6771 16.9391C41.604 21.416 37.9075 22.9549 33.7579 21.5209C32.5931 21.1375 31.5718 20.4231 30.8246 19.469C29.828 18.32 29.1214 16.9583 28.7617 15.4934C28.4703 14.1889 28.5022 12.8353 28.8549 11.5454C29.2075 10.2555 29.8706 9.06676 30.7888 8.07846C31.6602 7.00429 32.7912 6.15892 34.0799 5.61847C34.8942 5.17962 35.8471 5.05484 36.7509 5.26871C36.9559 5.32419 37.142 5.43229 37.2899 5.5818C37.4378 5.73132 37.5421 5.91679 37.592 6.119C37.6419 6.3212 37.6355 6.53277 37.5736 6.73177C37.5116 6.93076 37.3964 7.10993 37.2398 7.25069C36.942 7.51424 36.6185 7.74854 36.2739 7.95021C35.2138 8.61028 34.2913 9.46083 33.5552 10.4568C33.0727 11.1013 32.7404 11.8414 32.5818 12.6249C32.4231 13.4084 32.442 14.2164 32.6371 14.9921C32.9075 16.0497 33.5076 16.999 34.3541 17.7085C36.9774 20.0403 40.3877 17.7901 39.7915 14.6073C38.9211 14.8172 38.1579 15.0387 37.3828 15.2252Z" fill="black"/>
<path d="M53.4089 21.8007C49.5336 24.1325 45.1217 21.8007 44.1558 16.9041C43.4523 13.4065 44.7878 8.50979 49.4621 6.6444C50.4566 6.25605 51.5353 6.1197 52.5981 6.248C53.875 6.47655 55.0464 7.09118 55.947 8.00525C56.8476 8.91931 57.4322 10.0867 57.6181 11.3429C58.4051 15.505 56.6165 19.947 53.4089 21.8007ZM54.7564 13.9544C54.7552 12.9859 54.4048 12.0487 53.7667 11.3079C53.4256 10.8497 52.9325 10.5214 52.3715 10.3789C51.8104 10.2365 51.2163 10.2887 50.6902 10.5268C48.5916 11.4128 47.113 14.6306 47.6496 16.9974C47.6906 17.3688 47.814 17.727 48.0113 18.0469C48.2086 18.3668 48.475 18.6407 48.7919 18.8495C49.1087 19.0582 49.4684 19.1968 49.8457 19.2555C50.2231 19.3141 50.609 19.2915 50.9764 19.1892C52.0857 18.8103 53.0462 18.1022 53.7238 17.1637C54.4015 16.2252 54.7625 15.1032 54.7564 13.9544Z" fill="black"/>
<path d="M61.5372 22.7802C61.4787 23.2069 61.2493 23.5934 60.8993 23.8547C60.5493 24.1159 60.1075 24.2306 59.6711 24.1734C59.2347 24.1162 58.8394 23.8918 58.5722 23.5496C58.3049 23.2075 58.1877 22.7755 58.2462 22.3488C58.3047 21.9221 58.5342 21.5356 58.8841 21.2743C59.2341 21.013 59.6759 20.8984 60.1123 20.9556C60.5487 21.0128 60.944 21.2371 61.2113 21.5793C61.4785 21.9215 61.5958 22.3535 61.5372 22.7802ZM60.4998 7.05253C60.7266 6.71388 61.0593 6.45598 61.4483 6.31731C61.8372 6.17864 62.2616 6.16662 62.6581 6.28305C63.0612 6.38166 63.4173 6.61267 63.667 6.9374C63.9166 7.26214 64.0445 7.66088 64.0294 8.06684C63.9768 8.71801 63.8772 9.36473 63.7313 10.0022C63.3378 12.1591 62.9562 14.3159 62.5389 16.4495C62.3481 17.3006 62.0977 18.1167 61.8234 18.9794C61.728 19.2491 61.5686 19.4928 61.3584 19.6906C61.2277 19.8394 61.0608 19.9535 60.873 20.0224C60.6852 20.0914 60.4827 20.1129 60.2842 20.085C60.0857 20.0571 59.8975 19.9807 59.7372 19.8629C59.5769 19.745 59.4496 19.5895 59.3671 19.4108C59.2253 19.0902 59.1483 18.7457 59.1405 18.3965C59.1405 16.9508 59.1405 15.4935 59.2359 14.0361C59.398 11.9563 59.7168 9.89093 60.1898 7.85697C60.2455 7.58447 60.3504 7.32388 60.4998 7.0875V7.05253Z" fill="black"/>
<path fill-rule="evenodd" clip-rule="evenodd" d="M7.01052 32.1488C6.86973 32.4561 6.83112 32.7987 6.89992 33.1284C6.94569 33.563 7.04622 33.9905 7.19922 34.4011C7.39024 34.9039 7.60399 35.4011 7.86755 36.0139C7.92816 36.1549 7.9915 36.3021 8.05778 36.457C8.4132 37.2872 8.85916 38.3482 9.45401 39.8837C9.62238 40.3199 9.77189 40.7597 9.92245 41.2025C9.98327 41.3814 10.0443 41.5609 10.1068 41.7408C10.3308 42.3804 10.7161 42.955 11.2269 43.4104C11.4438 43.6607 11.7315 43.8431 12.0541 43.9343C12.383 44.0273 12.7328 44.0214 13.0582 43.9174C13.3836 43.8133 13.6694 43.6159 13.8785 43.3508C14.0835 43.0909 14.2054 42.7777 14.2291 42.4505C14.3621 41.8131 14.3167 41.1522 14.0975 40.5377C13.7496 39.5174 13.3533 38.4956 12.8963 37.4962L12.8942 37.4918C12.1424 35.9282 11.3782 34.3754 10.5779 32.822L10.5719 32.8111C10.3376 32.4064 10.0331 32.0446 9.67207 31.742C9.43771 31.4719 9.11444 31.2897 8.75744 31.2269C8.39283 31.1628 8.01679 31.2274 7.69645 31.4093C7.39341 31.5785 7.15319 31.8374 7.01052 32.1488Z" fill="black"/>
<path fill-rule="evenodd" clip-rule="evenodd" d="M18.4933 28.2986C17.3145 28.0001 16.0834 27.9566 14.8858 28.1712C13.9582 28.2605 13.0459 28.4697 12.4124 28.8841C12.0902 29.095 11.8297 29.3658 11.6848 29.71C11.5391 30.0561 11.5205 30.4519 11.6399 30.8929C11.8579 31.7007 12.141 32.4861 12.4231 33.269L12.4688 33.3958L12.4699 33.3986C13.3193 35.673 14.1768 37.9397 15.0421 40.1986C15.143 40.5546 15.2857 40.898 15.4673 41.2219L15.4707 41.2279C15.7106 41.6303 16.0183 41.9902 16.3808 42.2925C16.5621 42.4587 16.7863 42.5737 17.0294 42.6251C17.2749 42.6769 17.5302 42.6619 17.7675 42.5815C18.0049 42.5012 18.2151 42.3587 18.3753 42.1695C18.5329 41.9834 18.6361 41.7592 18.674 41.5206C18.8304 40.8724 18.7803 40.1929 18.5303 39.5733C18.4523 39.3648 18.3911 39.1517 18.3266 38.9274C18.3051 38.8526 18.2833 38.7765 18.2603 38.699C20.241 37.942 22.3485 36.9241 23.0896 34.5561C23.3798 33.7378 23.404 32.8517 23.1588 32.0193C22.9134 31.186 22.4099 30.4474 21.7177 29.9052C20.7756 29.1462 19.6751 28.5978 18.4933 28.2986ZM15.2258 31.2031C15.2648 31.1921 15.3041 31.1819 15.3435 31.1724C16.633 30.9742 17.9523 31.2383 19.0585 31.9159C19.546 32.2474 19.7457 32.6157 19.78 32.9701C19.8154 33.335 19.6797 33.7304 19.4071 34.1105C18.892 34.8285 17.952 35.4032 17.1029 35.5103C16.4839 34.1165 15.8553 32.6663 15.2258 31.2031Z" fill="black"/>
<path d="M26.3521 25.7473C27.7559 25.1134 29.4948 25.0039 30.8555 25.4496C31.1982 25.5472 31.4955 25.7583 31.6966 26.0468C31.8964 26.3335 31.9886 26.679 31.9578 27.0244C31.9558 27.2486 31.8995 27.4692 31.7936 27.6682C31.6858 27.8708 31.5297 28.045 31.3385 28.1762C31.1473 28.3073 30.9266 28.3916 30.6951 28.4217C30.4635 28.4519 30.228 28.4271 30.0083 28.3494L29.9916 28.3435L29.9759 28.3354C29.8635 28.2779 29.7441 28.2346 29.6206 28.2064L29.6128 28.2047C28.6556 27.9561 27.7527 28.368 27.4229 28.8741C27.2656 29.1154 27.2461 29.359 27.3771 29.5806C27.5174 29.8179 27.8615 30.0842 28.5578 30.274C28.7493 30.3254 28.9456 30.375 29.1447 30.4254C29.6953 30.5648 30.2675 30.7096 30.8208 30.9103L30.8229 30.9111C33.3755 31.8607 34.326 33.8274 34.0006 35.6772C33.6787 37.5065 32.1162 39.1713 29.7665 39.564C28.9115 39.7493 28.0217 39.7132 27.1852 39.4593C26.3466 39.2046 25.5907 38.7399 24.9926 38.1111L24.977 38.0947C24.7882 37.8578 24.6612 37.5795 24.6049 37.2842C24.5531 37.0177 24.5804 36.7423 24.6834 36.4904C24.7858 36.24 24.959 36.0233 25.1825 35.8654C25.4186 35.6864 25.7032 35.579 26.0011 35.5566C26.298 35.5343 26.5951 35.5974 26.8558 35.738C27.1162 35.861 27.3584 36.0179 27.5758 36.2045L27.5799 36.2079C27.9645 36.5518 28.4298 36.6414 28.876 36.5584C29.3287 36.4742 29.7544 36.2123 30.0282 35.8648C30.3002 35.5195 30.4094 35.1093 30.2798 34.7111C30.1494 34.31 29.7573 33.8606 28.8958 33.4849C28.6706 33.3914 28.4371 33.316 28.1942 33.2426C28.1287 33.2228 28.0621 33.2031 27.9947 33.1831C27.8151 33.1298 27.6303 33.0749 27.4491 33.0144C27.3243 32.9728 27.2005 32.9334 27.0779 32.8943C26.7428 32.7876 26.4161 32.6836 26.1017 32.5441C25.4174 32.3163 24.8262 31.8789 24.4161 31.2966C24.0043 30.712 23.7971 30.0129 23.8253 29.3037C23.8275 27.5754 24.9408 26.3847 26.3521 25.7473Z" fill="black"/>
<path d="M44.1495 25.5632C43.8773 25.4332 43.5763 25.3715 43.2737 25.3836C42.971 25.3958 42.6762 25.4814 42.4159 25.6329C42.1572 25.7833 41.9406 25.9939 41.7854 26.246C41.6431 26.4583 41.5446 26.6957 41.4955 26.945C41.4464 27.1941 41.4476 27.4501 41.4989 27.6986C41.5496 28.018 41.6058 28.3286 41.6613 28.6349C41.7532 29.1418 41.8426 29.6373 41.9016 30.1425L41.9038 30.1553C42.0381 30.9476 42.1084 31.7489 42.1147 32.5519L42.1153 32.5633C42.1612 33.4305 41.859 34.2808 41.2735 34.9338L41.2642 34.9454C41.0737 35.1841 40.819 35.3663 40.5285 35.4716C40.2381 35.5769 39.9235 35.6011 39.6198 35.5415C39.3161 35.4819 39.0354 35.3409 38.809 35.1342C38.5826 34.9275 38.4193 34.6625 38.3378 34.3704C38.1638 33.7547 38.0631 33.1214 38.0375 32.4832L38.3347 27.8569C38.3391 27.7965 38.3441 27.7345 38.3492 27.6719C38.3605 27.5314 38.3721 27.3883 38.3769 27.2548C38.3839 27.0584 38.3779 26.8564 38.3311 26.6652C38.2832 26.4698 38.1921 26.2839 38.0305 26.1256C37.8705 25.9689 37.6545 25.8533 37.3827 25.7746C36.8912 25.6355 36.4756 25.6399 36.1293 25.7836C35.7828 25.9273 35.5454 26.1941 35.3774 26.5023C35.2107 26.8079 35.1036 27.1697 35.0226 27.5321C34.9625 27.801 34.9142 28.0833 34.8683 28.352C34.8524 28.4446 34.8369 28.5355 34.8212 28.6238L34.8208 28.6264C34.5752 30.1 34.5021 31.5962 34.6029 33.086C34.6217 33.8911 34.7934 34.6858 35.1094 35.4295C35.4659 36.3891 36.1116 37.2205 36.9613 37.814C37.8128 38.4087 38.8289 38.7364 39.8751 38.7537C40.9213 38.771 41.9482 38.4771 42.8198 37.911C43.69 37.3457 44.3644 36.5355 44.7538 35.5876C45.2985 34.3801 45.5543 33.0669 45.5015 31.7481C45.4695 30.7853 45.4159 29.8151 45.3626 28.8498C45.3364 28.3763 45.3103 27.9038 45.2869 27.4342C45.2751 26.9633 45.1163 26.5072 44.8317 26.1271C44.6556 25.8868 44.4212 25.693 44.1495 25.5632Z" fill="black"/>
<path d="M53.7834 32.8173C53.7558 32.8516 53.7267 32.8871 53.6963 32.924C53.4749 31.6752 53.2697 30.4268 53.0642 29.1765C52.9905 28.7279 52.9164 28.2774 52.8419 27.8282L52.8335 27.7781L52.8063 27.7348C52.755 27.6533 52.7499 27.5734 52.7499 27.403V27.3833L52.7468 27.3638C52.6912 27.0119 52.5284 26.6844 52.2797 26.4242C52.0317 26.1647 51.7096 25.9841 51.3553 25.9057C51.0016 25.8204 50.6299 25.8392 50.287 25.9598C49.945 26.0801 49.6469 26.2963 49.4299 26.5813C49.2495 26.8 49.1016 27.0426 48.9908 27.3018C48.7393 27.8602 48.4856 28.42 48.2312 28.9813L48.2268 28.991C47.5917 30.3923 46.9523 31.803 46.3315 33.2248L46.3296 33.2294C45.9485 34.1513 45.6339 35.1227 45.3204 36.0911C45.2578 36.2844 45.1952 36.4776 45.1321 36.6703C45.0189 36.9759 44.9694 37.3005 44.9864 37.625C44.9658 37.9155 45.0369 38.2053 45.1903 38.4552C45.3467 38.7102 45.581 38.9108 45.8601 39.0289C46.1559 39.1557 46.4866 39.1826 46.7999 39.1054C47.1125 39.0283 47.3901 38.8519 47.589 38.6039C47.843 38.2984 48.0615 37.9652 48.2397 37.6122C48.7656 36.5604 49.2682 35.4958 49.7685 34.4358C49.9621 34.0258 50.1502 33.6586 50.3642 33.2587C50.3789 33.308 50.3939 33.3561 50.4094 33.4043C50.6337 34.3698 51.0123 35.2946 51.5312 36.1448C51.6294 36.3249 51.7662 36.4823 51.9322 36.6062C52.1002 36.7316 52.2941 36.8196 52.5004 36.8643C52.7067 36.909 52.9205 36.9092 53.1269 36.8649C53.333 36.8207 53.5275 36.7326 53.6956 36.6078L54.0283 36.3643L56.6106 34.2376L56.4579 35.1891C56.2483 36.497 56.0403 37.794 55.8193 39.0913C55.6747 39.6663 55.6749 40.2669 55.8199 40.8417C55.8827 41.1652 56.0427 41.463 56.2795 41.6972C56.5183 41.9333 56.8241 42.0937 57.1573 42.1577C57.4905 42.2216 57.8357 42.1862 58.148 42.0559C58.4558 41.9276 58.7176 41.713 58.9006 41.4395C59.3264 40.923 59.5914 40.2977 59.6642 39.638C59.7738 38.7064 59.8976 37.7621 60.0215 36.8181C60.1642 35.73 60.3069 34.6422 60.4274 33.5753L60.4278 33.572C60.5438 32.4041 60.5999 31.2314 60.596 30.058C60.6214 29.6872 60.527 29.3178 60.3258 29.0021C60.1239 28.6853 59.8249 28.439 59.4715 28.2981C59.1039 28.1347 58.6924 28.091 58.2975 28.1736C57.9052 28.2556 57.5501 28.4578 57.2837 28.7507C56.8074 29.1814 56.3606 29.6423 55.9461 30.1304L55.9433 30.1337C55.4908 30.685 55.0414 31.2471 54.5949 31.8056C54.3234 32.1451 54.0527 32.4838 53.7834 32.8173Z" fill="black"/>
</g>
<defs>
<clipPath id="clip0_530_2728">
<rect width="70" height="44" fill="white" transform="translate(0.587402)"/>
</clipPath>
</defs>
</svg>
