<svg width="500" height="500" viewBox="0 0 500 500" fill="none" xmlns="http://www.w3.org/2000/svg">
<rect width="500" height="500" fill="white"/>
<path d="M333.018 156.886C329.773 156.886 327.249 154.363 326.708 151.298C322.562 122.814 322.742 122.994 292.094 116.865C288.85 116.144 286.507 113.98 286.507 110.555C286.507 107.13 289.03 104.786 292.276 104.245C322.742 99.9187 322.742 99.7385 326.708 69.9926C327.249 66.7476 329.773 64.2237 333.018 64.2237C336.443 64.2237 338.787 66.7476 339.328 70.3531C342.933 98.2962 343.113 98.1159 373.941 104.245C377.367 104.966 379.53 107.13 379.53 110.555C379.53 113.98 377.367 116.144 373.4 116.865C343.654 121.913 343.474 122.093 339.328 151.118C338.787 154.363 336.443 156.886 333.018 156.886ZM363.485 435.776C358.437 435.776 354.11 431.99 353.39 426.762C347.44 380.792 347.08 379.89 297.503 371.416C292.456 370.515 288.85 366.37 288.85 361.321C288.85 356.093 292.635 351.766 297.863 351.225C346.539 344.736 347.44 343.654 353.39 295.881C354.11 290.472 358.257 286.686 363.485 286.686C368.893 286.686 373.04 290.472 373.581 296.241C379.169 341.852 380.07 342.572 429.467 351.225C434.695 352.127 438.3 356.093 438.3 361.321C438.3 366.73 434.695 370.515 428.385 371.416C380.431 378.267 379.169 380.07 373.581 426.402C373.04 431.99 368.893 435.776 363.485 435.776ZM213.313 378.087C203.759 378.087 196.188 371.236 194.746 361.502C181.224 268.839 168.244 255.499 79.0067 245.223C69.0911 244.141 61.7 236.209 61.7 226.474C61.7 217.099 68.7312 209.348 78.8267 207.725C167.883 195.285 178.7 184.289 194.746 91.6253C196.548 81.8909 203.939 75.041 213.313 75.041C222.688 75.041 230.26 81.8909 231.702 91.6253C245.403 184.289 258.203 197.63 347.621 207.725C357.535 208.806 364.747 216.739 364.747 226.474C364.747 236.029 357.717 243.781 347.801 245.223C258.563 258.022 247.927 268.839 231.702 361.502C230.079 371.236 222.508 378.087 213.313 378.087Z" fill="black"/>
</svg>
